<?xml version="1.0" standalone="no"?>
<!DOCTYPE svg PUBLIC "-//W3C//DTD SVG 20010904//EN"
 "http://www.w3.org/TR/2001/REC-SVG-20010904/DTD/svg10.dtd">
<svg version="1.0" xmlns="http://www.w3.org/2000/svg"
 width="526.000000pt" height="474.000000pt" viewBox="0 0 526.000000 474.000000"
 preserveAspectRatio="xMidYMid meet">

<g transform="translate(0.000000,474.000000) scale(0.100000,-0.100000)"
fill="#000000" stroke="none">
<path d="M0 2370 l0 -2370 2630 0 2630 0 0 2370 0 2370 -2630 0 -2630 0 0
-2370z m2763 1663 c-29 -2 -77 -2 -105 0 -29 2 -6 3 52 3 58 0 81 -1 53 -3z
m172 -13 c3 -5 1 -10 -4 -10 -6 0 -11 5 -11 10 0 6 2 10 4 10 3 0 8 -4 11 -10z
m262 -76 c-3 -3 -12 -4 -19 -1 -8 3 -5 6 6 6 11 1 17 -2 13 -5z m-1017 -24
c-8 -5 -19 -10 -25 -10 -5 0 -3 5 5 10 8 5 20 10 25 10 6 0 3 -5 -5 -10z
m1125 -14 c28 -14 61 -34 75 -46 24 -21 9 -18 -19 4 -7 6 -41 23 -75 38 -33
15 -54 28 -46 28 8 0 38 -11 65 -24z m-537 -13 c-26 -2 -71 -2 -100 0 -29 2
-8 3 47 3 55 0 79 -1 53 -3z m-191 -9 c-3 -3 -12 -4 -19 -1 -8 3 -5 6 6 6 11
1 17 -2 13 -5z m300 0 c-3 -3 -12 -4 -19 -1 -8 3 -5 6 6 6 11 1 17 -2 13 -5z
m-358 -8 c-2 -2 -22 -6 -44 -9 -28 -5 -34 -4 -20 3 19 8 73 14 64 6z m-509
-46 c-35 -24 -54 -31 -30 -11 14 11 30 21 35 21 6 0 3 -5 -5 -10z m280 -20 c0
-5 -8 -10 -17 -10 -15 0 -16 2 -3 10 19 12 20 12 20 0z m1206 -21 c19 -11 34
-25 34 -30 0 -5 -9 -4 -20 3 -11 7 -20 16 -20 20 0 5 -6 8 -14 8 -8 0 -18 5
-21 10 -10 16 5 12 41 -11z m-1561 -8 c-6 -4 -41 -35 -80 -67 -38 -32 -79 -67
-91 -79 -27 -29 -135 -163 -157 -195 -25 -36 -21 -14 5 29 50 82 288 318 323
320 6 1 6 -2 0 -8z m140 -81 c-3 -5 -12 -10 -18 -10 -7 0 -6 4 3 10 19 12 23
12 15 0z m1571 -40 c12 -14 21 -26 19 -28 -4 -4 -28 20 -60 59 -19 23 -19 23
0 9 10 -8 29 -26 41 -40z m-216 -7 c0 -2 -13 3 -30 12 -16 9 -30 20 -30 26 0
5 14 0 30 -13 17 -12 30 -23 30 -25z m-1450 -19 c-34 -25 -64 -43 -66 -41 -6
5 107 87 120 87 4 0 -20 -21 -54 -46z m1511 -21 c13 -15 12 -15 -8 -4 -24 12
-29 21 -14 21 5 0 15 -7 22 -17z m220 -20 l24 -26 -27 19 c-15 10 -28 22 -28
27 0 12 5 8 31 -20z m-1863 -80 c-30 -32 -70 -78 -87 -102 -38 -53 -41 -47 -5
10 29 46 125 149 139 149 5 0 -16 -26 -47 -57z m1723 20 c13 -16 12 -17 -3 -4
-17 13 -22 21 -14 21 2 0 10 -8 17 -17z m69 -76 c0 -13 -29 12 -42 37 -10 19
-8 18 16 -3 14 -14 26 -29 26 -34z m186 -24 c-4 -4 -11 -1 -16 7 -16 25 -11
35 7 17 9 -9 13 -20 9 -24z m-145 -35 c11 -21 11 -22 -4 -9 -10 7 -17 17 -17
22 0 15 9 10 21 -13z m236 -4 c-3 -3 -12 -4 -19 -1 -8 3 -5 6 6 6 11 1 17 -2
13 -5z m103 -24 c13 -9 13 -10 0 -10 -8 0 -22 5 -30 10 -13 9 -13 10 0 10 8 0
22 -5 30 -10z m-2545 -90 c-3 -5 -10 -10 -16 -10 -5 0 -9 5 -9 10 0 6 7 10 16
10 8 0 12 -4 9 -10z m2720 -8 c-3 -3 -11 0 -18 7 -9 10 -8 11 6 5 10 -3 15 -9
12 -12z m-2535 -22 c-6 -11 -13 -20 -16 -20 -2 0 0 9 6 20 6 11 13 20 16 20 2
0 0 -9 -6 -20z m2200 4 c0 -2 -12 -4 -27 -4 -21 0 -24 3 -14 9 13 8 41 5 41
-5z m-2513 0 c-3 -3 -12 -4 -19 -1 -8 3 -5 6 6 6 11 1 17 -2 13 -5z m2583 -9
c19 -7 28 -14 20 -14 -8 0 -28 6 -45 14 -39 17 -21 18 25 0z m300 5 c0 -5 -2
-10 -4 -10 -3 0 -8 5 -11 10 -3 6 -1 10 4 10 6 0 11 -4 11 -10z m-2935 -10
c-27 -12 -43 -12 -25 0 8 5 22 9 30 9 10 0 8 -3 -5 -9z m3005 -52 l23 -33 -31
29 c-34 31 -37 36 -24 36 5 0 19 -15 32 -32z m-3200 -38 c0 -5 -5 -10 -11 -10
-5 0 -7 5 -4 10 3 6 8 10 11 10 2 0 4 -4 4 -10z m488 -7 c-10 -2 -28 -2 -40 0
-13 2 -5 4 17 4 22 1 32 -1 23 -4z m-95 -10 c-7 -2 -19 -2 -25 0 -7 3 -2 5 12
5 14 0 19 -2 13 -5z m2668 -10 c13 -15 12 -15 -8 -4 -24 12 -29 21 -14 21 5 0
15 -7 22 -17z m-3091 3 c0 -2 -7 -7 -16 -10 -8 -3 -12 -2 -9 4 6 10 25 14 25
6z m230 -36 c-8 -5 -19 -10 -25 -10 -5 0 -3 5 5 10 8 5 20 10 25 10 6 0 3 -5
-5 -10z m2925 -36 c9 -15 12 -23 6 -20 -11 7 -35 46 -28 46 3 0 12 -12 22 -26z
m-3089 -57 c-10 -7 -36 -27 -58 -44 -59 -49 -61 -39 -3 12 28 25 57 44 65 44
11 0 10 -3 -4 -12z m3331 -90 c-2 -7 -9 4 -15 23 -5 19 -13 44 -16 55 -3 11 3
1 15 -23 11 -24 18 -49 16 -55z m-179 58 c-3 -3 -9 2 -12 12 -6 14 -5 15 5 6
7 -7 10 -15 7 -18z m-3446 -54 c-15 -21 -28 -38 -30 -36 -5 5 40 75 49 75 5 0
-4 -18 -19 -39z m3478 -9 c0 -15 -2 -15 -10 -2 -13 20 -13 33 0 25 6 -3 10
-14 10 -23z m-3310 -11 c-11 -21 -30 -37 -30 -25 0 8 30 44 37 44 2 0 -1 -9
-7 -19z m3489 -111 l-1 -35 -8 30 c-4 17 -8 39 -9 50 -1 16 1 17 9 5 5 -8 9
-31 9 -50z m-130 -74 c2 -67 -16 -26 -21 49 -5 68 -5 69 8 30 7 -22 13 -58 13
-79z m-3438 81 c-10 -9 -11 -8 -5 6 3 10 9 15 12 12 3 -3 0 -11 -7 -18z m-26
-56 c-3 -6 -11 -11 -17 -11 -6 0 -6 6 2 15 14 17 26 13 15 -4z m-36 -63 c-11
-38 -29 -60 -29 -35 0 16 27 67 35 67 2 0 -1 -14 -6 -32z m3535 -63 c11 -8 16
-15 10 -15 -5 0 -18 7 -28 15 -11 8 -16 15 -10 15 5 0 18 -7 28 -15z m-3579
-70 c-7 -33 -13 -49 -14 -35 -1 26 18 104 24 98 2 -1 -3 -30 -10 -63z m-158
-77 c-3 -8 -6 -5 -6 6 -1 11 2 17 5 13 3 -3 4 -12 1 -19z m1536 15 c-7 -2 -21
-2 -30 0 -10 3 -4 5 12 5 17 0 24 -2 18 -5z m2407 -55 c0 -13 0 -14 -29 32
l-23 35 26 -28 c14 -15 26 -33 26 -39z m-3803 0 c-2 -13 -4 -5 -4 17 -1 22 1
32 4 23 2 -10 2 -28 0 -40z m1460 46 c-3 -3 -12 -4 -19 -1 -8 3 -5 6 6 6 11 1
17 -2 13 -5z m40 -10 c-3 -3 -12 -4 -19 -1 -8 3 -5 6 6 6 11 1 17 -2 13 -5z
m189 -132 c-4 -3 -14 2 -24 12 -16 18 -16 18 6 6 13 -6 21 -14 18 -18z m-242
-1 c3 -4 -6 -6 -19 -3 -14 2 -25 6 -25 8 0 8 39 4 44 -5z m-1447 -48 c-3 -10
-5 -4 -5 12 0 17 2 24 5 18 2 -7 2 -21 0 -30z m1508 17 c3 -5 1 -10 -4 -10 -6
0 -11 5 -11 10 0 6 2 10 4 10 3 0 8 -4 11 -10z m-1451 -227 c9 -18 12 -33 6
-33 -5 0 -10 1 -10 3 0 1 -11 35 -25 75 -14 41 -25 88 -24 105 1 21 7 7 18
-43 10 -41 25 -90 35 -107z m3973 155 c-3 -8 -6 -5 -6 6 -1 11 2 17 5 13 3 -3
4 -12 1 -19z m-2876 -34 c-12 -21 -21 -33 -21 -26 0 18 30 75 36 69 3 -3 -4
-22 -15 -43z m489 -1 c14 -13 20 -23 15 -23 -12 0 -75 55 -75 65 0 8 18 -5 60
-42z m241 -10 c13 -15 12 -15 -8 -4 -24 12 -29 21 -14 21 5 0 15 -7 22 -17z
m-2007 -8 c3 -8 1 -15 -4 -15 -6 0 -10 7 -10 15 0 8 2 15 4 15 2 0 6 -7 10
-15z m4163 -72 c-2 -16 -4 -3 -4 27 0 30 2 43 4 28 2 -16 2 -40 0 -55z m-140
0 c-2 -16 -4 -5 -4 22 0 28 2 40 4 28 2 -13 2 -35 0 -50z m-2910 0 c-3 -10 -5
-2 -5 17 0 19 2 27 5 18 2 -10 2 -26 0 -35z m140 -15 c-2 -13 -4 -3 -4 22 0
25 2 35 4 23 2 -13 2 -33 0 -45z m608 32 c3 -5 1 -10 -4 -10 -6 0 -11 5 -11
10 0 6 2 10 4 10 3 0 8 -4 11 -10z m295 -50 c8 -5 11 -12 7 -16 -4 -4 -15 0
-24 9 -18 18 -8 23 17 7z m-2122 -25 c-3 -3 -9 2 -12 12 -6 14 -5 15 5 6 7 -7
10 -15 7 -18z m3977 -42 c-10 -40 -17 -20 -9 23 5 24 9 32 12 21 2 -10 1 -30
-3 -44z m-2269 -74 c71 -55 138 -108 149 -117 11 -10 38 -31 60 -47 22 -16 49
-39 60 -50 11 -11 42 -36 68 -55 69 -49 89 -97 71 -167 -4 -13 -55 -59 -123
-110 -64 -48 -138 -106 -166 -128 -46 -38 -64 -51 -131 -96 -13 -8 -39 -29
-57 -46 -65 -59 -145 -59 -202 1 -19 20 -20 34 -20 433 l0 412 29 30 c28 29
86 51 117 43 8 -2 73 -48 145 -103z m471 91 c14 -11 22 -20 17 -20 -12 1 -61
39 -51 40 5 0 20 -9 34 -20z m1940 -2 c-3 -8 -6 -5 -6 6 -1 11 2 17 5 13 3 -3
4 -12 1 -19z m-4097 -8 c0 -5 -4 -10 -10 -10 -5 0 -10 5 -10 10 0 6 5 10 10
10 6 0 10 -4 10 -10z m164 -16 c3 -8 2 -12 -4 -9 -6 3 -10 10 -10 16 0 14 7
11 14 -7z m1045 -49 c-1 -35 -2 -37 -9 -15 -4 14 -8 39 -9 55 0 23 2 26 9 15
5 -8 9 -33 9 -55z m-152 13 c-3 -7 -5 -2 -5 12 0 14 2 19 5 13 2 -7 2 -19 0
-25z m-1017 -33 c0 -5 9 -21 20 -35 21 -27 26 -45 10 -35 -6 3 -20 27 -32 53
-31 64 -33 70 -14 47 8 -11 16 -24 16 -30z m170 -5 c0 -5 -2 -10 -4 -10 -3 0
-8 5 -11 10 -3 6 -1 10 4 10 6 0 11 -4 11 -10z m24 -36 c3 -8 2 -12 -4 -9 -6
3 -10 10 -10 16 0 14 7 11 14 -7z m2107 -11 c13 -16 12 -17 -3 -4 -17 13 -22
21 -14 21 2 0 10 -8 17 -17z m-1144 -40 c-3 -10 -5 -4 -5 12 0 17 2 24 5 18 2
-7 2 -21 0 -30z m-882 -41 c-7 -7 -45 29 -45 41 0 6 11 0 25 -13 14 -13 23
-26 20 -28z m3705 0 c-12 -22 -28 -46 -36 -53 -8 -7 0 13 18 43 38 64 49 70
18 10z m-1599 11 c13 -17 13 -17 -6 -3 -11 8 -22 16 -24 17 -2 2 0 3 6 3 6 0
17 -8 24 -17z m-161 -49 c0 -9 -37 15 -51 33 -10 12 -5 11 19 -6 17 -12 32
-24 32 -27z m-2105 16 c27 -30 12 -34 -15 -5 -13 14 -19 25 -13 25 5 0 18 -9
28 -20z m3670 -10 c-10 -11 -20 -18 -23 -15 -3 3 3 14 13 25 10 11 20 18 23
15 3 -3 -3 -14 -13 -25z m-3474 3 c13 -16 12 -17 -3 -4 -17 13 -22 21 -14 21
2 0 10 -8 17 -17z m2148 -37 c-3 -3 -11 5 -18 17 -13 21 -12 21 5 5 10 -10 16
-20 13 -22z m491 27 c-19 -3 -42 -10 -50 -16 -13 -10 -13 -10 -1 6 9 11 26 16
50 15 l36 -1 -35 -4z m-2554 -51 c-4 -3 -14 2 -24 12 -16 18 -16 18 6 6 13 -6
21 -14 18 -18z m761 -19 c-3 -10 -5 -2 -5 17 0 19 2 27 5 18 2 -10 2 -26 0
-35z m1117 31 c6 -15 4 -15 -11 -3 -10 7 -20 15 -22 16 -2 2 3 3 11 3 9 0 19
-7 22 -16z m603 -36 c-3 -7 -5 -2 -5 12 0 14 2 19 5 13 2 -7 2 -19 0 -25z
m-2648 -31 c1 -5 -12 1 -29 13 -16 12 -30 26 -30 31 0 12 59 -32 59 -44z
m2101 10 c0 -6 -9 -2 -20 8 -11 10 -20 23 -20 28 0 6 9 2 20 -8 11 -10 20 -23
20 -28z m1574 19 c-3 -8 -13 -17 -22 -21 -13 -5 -13 -2 3 15 21 24 26 25 19 6z
m-754 -36 c19 -11 31 -19 25 -19 -5 0 -26 8 -45 19 -19 11 -30 19 -25 19 6 0
26 -8 45 -19z m-791 -40 c0 -10 -3 -8 -9 5 -12 27 -12 43 0 25 5 -8 9 -22 9
-30z m-2072 10 c14 -11 21 -20 15 -20 -12 0 -60 39 -49 40 5 0 20 -9 34 -20z
m2943 0 c18 -12 2 -12 -25 0 -13 6 -15 9 -5 9 8 0 22 -4 30 -9z m-2573 -6 c-3
-3 -12 -4 -19 -1 -8 3 -5 6 6 6 11 1 17 -2 13 -5z m2653 -14 c0 -5 -2 -10 -4
-10 -3 0 -8 5 -11 10 -3 6 -1 10 4 10 6 0 11 -4 11 -10z m150 6 c0 -2 -7 -7
-16 -10 -8 -3 -12 -2 -9 4 6 10 25 14 25 6z m-1093 -78 c-2 -13 -4 -3 -4 22 0
25 2 35 4 23 2 -13 2 -33 0 -45z m-1917 2 c13 -9 13 -10 0 -10 -8 0 -22 5 -30
10 -13 9 -13 10 0 10 8 0 22 -5 30 -10z m3240 -10 c-24 -15 -36 -11 -14 4 10
8 21 12 24 10 2 -3 -2 -9 -10 -14z m-3160 -20 c11 -8 7 -9 -15 -4 -37 8 -45
14 -19 14 10 0 26 -5 34 -10z m520 -10 c-8 -5 -24 -9 -35 -9 -16 1 -16 2 5 9
35 11 48 11 30 0z m2560 0 c-8 -5 -22 -9 -30 -9 -10 0 -8 3 5 9 27 12 43 12
25 0z m-65 -19 c-13 -12 -133 -26 -122 -15 5 5 34 12 65 15 31 3 59 7 62 8 2
0 0 -3 -5 -8z m-2858 -7 c-3 -3 -12 -4 -19 -1 -8 3 -5 6 6 6 11 1 17 -2 13 -5z
m58 -4 c3 -5 -1 -10 -10 -10 -9 0 -13 5 -10 10 3 6 8 10 10 10 2 0 7 -4 10
-10z m168 3 c-7 -2 -19 -2 -25 0 -7 3 -2 5 12 5 14 0 19 -2 13 -5z m1576 -37
c-9 -8 -10 -7 -5 7 3 10 7 24 7 30 1 7 3 4 6 -7 3 -10 -1 -23 -8 -30z m838 28
c-3 -3 -12 -4 -19 -1 -8 3 -5 6 6 6 11 1 17 -2 13 -5z m-1012 -44 c-10 -11
-23 -20 -28 -20 -6 0 0 11 13 25 27 29 42 25 15 -5z m150 -39 c-21 -43 -29
-39 -8 4 9 19 18 33 21 31 2 -2 -4 -18 -13 -35z m-275 -55 c0 -2 -8 -10 -17
-17 -16 -13 -17 -12 -4 4 13 16 21 21 21 13z m210 -26 c0 -5 -5 -10 -11 -10
-5 0 -7 5 -4 10 3 6 8 10 11 10 2 0 4 -4 4 -10z m-68 -52 c-6 -7 -25 -21 -44
-31 l-33 -18 35 30 c34 31 62 43 42 19z m-1237 -48 c4 -6 -6 -10 -22 -10 -22
0 -25 2 -13 10 19 12 27 12 35 0z m65 -76 c0 -14 -4 -23 -10 -19 -5 3 -10 15
-10 26 0 10 5 19 10 19 6 0 10 -12 10 -26z m774 8 c-12 -9 -32 -24 -44 -32
-13 -8 -36 -26 -51 -38 -16 -13 -29 -20 -29 -15 0 10 121 102 135 102 6 0 0
-7 -11 -17z m256 10 c0 -4 -15 -16 -32 -26 l-33 -18 29 26 c31 28 36 30 36 18z
m-1170 -24 c0 -16 -3 -19 -11 -11 -6 6 -8 16 -5 22 11 17 16 13 16 -11z m1100
-23 c0 -2 -10 -9 -22 -15 -22 -11 -22 -10 -4 4 21 17 26 19 26 11z m-75 -65
c-10 -11 -23 -20 -28 -20 -6 0 -2 9 8 20 10 11 23 20 28 20 6 0 2 -9 -8 -20z
m-255 -7 c0 -5 -17 -18 -38 -31 l-37 -23 33 30 c33 32 42 37 42 24z m-620 -22
c0 -11 -4 -23 -10 -26 -6 -4 -10 5 -10 19 0 14 5 26 10 26 6 0 10 -9 10 -19z
m775 -41 c-10 -11 -23 -20 -29 -20 -6 0 0 9 14 20 32 25 38 25 15 0z m-45 -34
c0 -3 -4 -8 -10 -11 -5 -3 -10 -1 -10 4 0 6 5 11 10 11 6 0 10 -2 10 -4z
m-250 -10 c0 -3 -15 -14 -32 -26 l-33 -22 28 26 c27 25 37 31 37 22z m166 -54
c-3 -5 -33 -28 -68 -52 -74 -51 -64 -35 13 21 57 40 63 44 55 31z m-296 -47
c-7 -8 -17 -15 -22 -15 -6 0 -5 7 2 15 7 8 17 15 22 15 6 0 5 -7 -2 -15z
m-430 -24 c0 -5 12 -24 27 -43 15 -18 20 -27 10 -19 -26 21 -60 71 -48 71 6 0
11 -4 11 -9z m540 -76 c-7 -8 -17 -15 -22 -15 -6 0 -5 7 2 15 7 8 17 15 22 15
6 0 5 -7 -2 -15z m-455 -15 c3 -5 2 -10 -4 -10 -5 0 -13 5 -16 10 -3 6 -2 10
4 10 5 0 13 -4 16 -10z"/>
</g>
</svg>
