<?xml version="1.0" standalone="no"?>
<!DOCTYPE svg PUBLIC "-//W3C//DTD SVG 20010904//EN"
 "http://www.w3.org/TR/2001/REC-SVG-20010904/DTD/svg10.dtd">
<svg version="1.0" xmlns="http://www.w3.org/2000/svg"
 width="1080.000000pt" height="231.000000pt" viewBox="0 0 1080.000000 231.000000"
 preserveAspectRatio="xMidYMid meet">

<g transform="translate(0.000000,231.000000) scale(0.100000,-0.100000)"
fill="#000000" stroke="none">
<path d="M0 1155 l0 -1155 5400 0 5400 0 0 1155 0 1155 -5400 0 -5400 0 0
-1155z m1780 545 c67 -23 152 -70 158 -88 2 -7 -2 -10 -12 -6 -26 10 -18 -13
11 -36 25 -20 28 -20 33 -4 6 15 14 11 52 -28 26 -25 72 -57 103 -72 100 -46
161 -109 190 -198 9 -29 31 -69 50 -88 48 -51 85 -116 84 -147 -1 -25 -3 -24
-22 18 -12 26 -44 69 -71 95 -27 27 -55 63 -62 79 l-13 30 -1 -29 c0 -22 11
-39 46 -71 38 -35 49 -54 64 -106 9 -35 14 -73 10 -84 -5 -15 -8 -9 -14 24 -8
55 -44 115 -96 164 -27 26 -40 47 -40 65 0 37 -34 102 -72 139 -22 21 -53 37
-93 47 -44 11 -65 23 -80 43 -37 51 -139 144 -186 168 -25 13 -77 29 -114 36
-184 32 -367 -45 -466 -195 -44 -68 -62 -81 -120 -90 -20 -4 -65 -24 -100 -45
-54 -32 -69 -47 -98 -102 -32 -58 -35 -71 -35 -149 0 -73 4 -92 26 -136 25
-48 84 -111 125 -133 11 -5 46 -16 79 -23 63 -15 117 -6 135 23 5 8 9 59 9
114 0 83 4 106 20 133 26 42 99 76 147 69 36 -6 182 -106 288 -197 33 -28 75
-64 93 -79 23 -20 32 -37 31 -57 l0 -29 -16 23 c-10 14 -26 22 -43 22 -22 0
-44 19 -109 93 -95 106 -186 183 -227 193 l-29 6 30 -25 29 -24 -50 4 c-38 4
-54 1 -72 -13 -29 -25 -42 -98 -35 -195 5 -71 4 -75 -22 -99 -24 -23 -34 -25
-123 -25 -87 0 -103 3 -155 29 -105 52 -184 155 -203 261 -9 52 8 35 25 -25
28 -97 85 -177 139 -194 11 -4 26 -13 32 -21 16 -19 40 -19 40 0 0 8 -7 15
-16 15 -23 0 -104 75 -130 120 -65 115 -65 222 1 351 9 16 12 29 8 29 -14 -1
-39 -25 -46 -44 -4 -10 -10 -16 -13 -13 -6 6 10 39 34 70 41 50 89 86 148 111
63 25 115 36 85 17 -20 -13 -4 -31 29 -31 24 0 32 8 55 53 15 28 33 59 40 67
7 8 18 26 25 40 l13 25 -24 -20 c-35 -29 -67 -62 -78 -82 -10 -17 -10 -17 -11
1 0 23 124 148 170 170 l35 17 -37 -34 c-21 -19 -38 -37 -38 -40 0 -5 124 66
139 79 3 2 -11 1 -30 -2 -46 -9 -32 3 38 32 79 32 243 34 333 4z m1308 -284
c56 -28 93 -59 110 -93 20 -37 13 -39 -13 -3 -36 49 -97 79 -187 92 -94 13
-157 2 -219 -39 -67 -44 -107 -115 -130 -228 -15 -80 -6 -142 32 -215 35 -68
33 -93 -3 -33 -59 97 -61 106 -55 208 6 113 34 182 96 244 39 39 99 76 151 92
49 15 165 2 218 -25z m753 7 c59 -26 125 -86 150 -136 24 -45 20 -60 -5 -21
-34 50 -90 106 -128 125 -33 17 -55 19 -156 17 -112 -4 -120 -5 -176 -37 -54
-31 -62 -40 -94 -110 -32 -69 -36 -85 -36 -166 -1 -97 13 -148 61 -217 32 -48
110 -98 176 -114 44 -10 47 -12 20 -13 -54 -2 -135 35 -180 81 -101 104 -132
246 -87 406 24 84 110 166 209 199 58 19 189 12 246 -14z m535 -42 c25 -31 57
-75 72 -99 15 -24 46 -68 70 -99 23 -31 42 -62 42 -69 0 -6 7 -17 15 -24 8 -7
15 -20 15 -29 -1 -20 -23 6 -87 104 -25 39 -63 93 -85 120 -21 28 -49 66 -61
85 -20 30 -28 35 -62 35 -62 0 -65 -12 -65 -290 0 -132 -3 -258 -7 -280 l-7
-40 -7 30 c-4 17 -7 150 -8 296 -1 253 0 268 19 292 42 53 98 41 156 -32z
m980 58 c79 -20 65 -33 -29 -26 -139 11 -234 -18 -296 -89 -56 -63 -71 -112
-71 -232 -1 -85 -3 -103 -12 -87 -17 29 -14 152 6 216 23 77 59 128 117 168
82 56 187 74 285 50z m800 -22 c58 -29 78 -55 95 -123 12 -45 11 -48 -11 -66
-16 -13 -36 -18 -59 -16 -31 3 -41 10 -69 53 -42 62 -61 72 -124 69 -81 -4
-115 -58 -66 -103 24 -23 21 -22 133 -47 44 -9 85 -21 91 -26 6 -5 35 -21 64
-37 42 -23 56 -37 66 -68 15 -43 17 -98 4 -128 -6 -14 -9 -3 -9 40 -1 40 -7
70 -20 91 -21 34 -97 75 -181 97 -30 8 -74 20 -97 26 -48 13 -103 55 -103 78
0 9 16 36 37 61 l36 44 63 -4 c54 -3 68 -8 95 -33 17 -17 39 -45 51 -62 33
-55 88 -40 88 23 0 25 -10 41 -50 78 -41 39 -56 46 -92 48 -63 3 -97 0 -158
-13 -80 -16 -108 -29 -141 -61 -34 -34 -37 -28 -9 16 20 33 83 74 134 87 62
16 177 4 232 -24z m720 4 c59 -26 148 -110 142 -136 -2 -12 -12 -5 -38 30 -52
69 -85 85 -201 98 l-102 11 -61 -33 c-106 -58 -143 -105 -165 -209 -19 -92 -8
-192 29 -262 25 -47 79 -102 124 -126 39 -21 59 -24 148 -24 70 0 98 -3 88
-10 -24 -15 -171 -12 -221 5 -67 24 -135 93 -176 182 -33 72 -35 81 -30 157
10 169 97 289 242 333 58 17 161 10 221 -16z m1538 19 c42 -16 48 -59 44 -355
-3 -236 -5 -274 -21 -302 -10 -18 -25 -33 -34 -33 -14 0 -13 4 5 23 22 23 22
29 22 323 0 317 -1 324 -47 324 -40 0 -53 -44 -53 -187 -1 -96 -3 -123 -11
-110 -7 12 -10 68 -7 149 3 128 3 130 31 154 32 27 36 28 71 14z m603 -11 c54
-23 113 -75 113 -98 0 -11 -9 -6 -28 15 -44 50 -78 65 -156 71 -55 4 -79 2
-104 -11 -17 -9 -40 -16 -50 -16 -30 0 -122 -72 -128 -100 -3 -14 -9 -34 -14
-45 -8 -18 -9 -18 -9 6 -3 85 68 166 164 190 63 15 162 10 212 -12z m-4261
-10 c18 -19 19 -42 22 -298 2 -165 -1 -287 -7 -301 -7 -17 -10 63 -11 260 0
315 -2 327 -60 347 l-35 12 36 0 c24 1 42 -6 55 -20z m2658 2 c60 -4 130 -4
155 0 89 15 120 11 146 -17 58 -63 12 -83 -187 -85 -80 0 -150 -4 -158 -9 -8
-5 -13 -30 -14 -72 l-1 -63 145 -6 c80 -3 153 -9 163 -14 18 -7 26 -75 8 -75
-4 0 -6 11 -3 25 3 20 0 25 -16 25 -30 0 -46 -24 -28 -43 13 -13 -1 -15 -117
-22 -73 -4 -138 -12 -144 -17 -8 -6 -13 -33 -13 -64 0 -64 22 -93 73 -95 22
-1 13 -4 -27 -11 -32 -5 -60 -7 -63 -4 -4 4 -8 82 -14 251 -1 11 1 67 3 125 3
98 2 107 -19 128 -25 24 -55 29 -71 9 -6 -7 -13 -116 -16 -276 -3 -145 -8
-266 -11 -269 -6 -6 -10 138 -8 238 2 61 1 63 -11 36 -11 -23 -14 -25 -19 -11
-14 34 -6 123 18 209 13 49 26 90 27 92 15 14 66 33 78 28 8 -4 64 -10 124
-13z m2136 2 c41 -3 114 0 163 6 93 13 121 7 132 -28 7 -23 -12 -68 -34 -77
-9 -3 -80 -6 -158 -5 -104 1 -143 -1 -149 -11 -13 -21 -22 -102 -14 -124 8
-20 16 -21 156 -23 154 -1 174 -6 174 -46 0 -46 -24 -53 -173 -50 -130 3 -138
2 -152 -18 -20 -29 -19 -85 3 -129 l19 -36 -24 -11 c-38 -17 -45 -6 -38 67 4
37 2 94 -3 127 -7 40 -6 77 1 110 16 78 2 162 -35 198 -25 26 -31 28 -44 16
-23 -24 -34 -159 -29 -372 l4 -202 28 -22 c15 -12 24 -25 21 -28 -13 -14 -49
7 -66 38 -15 29 -17 60 -14 297 2 176 7 273 15 290 17 35 55 52 102 45 22 -3
74 -8 115 -12z m-1484 -61 c20 -31 60 -85 88 -121 29 -36 63 -85 75 -107 26
-46 69 -74 82 -53 4 6 9 -12 11 -42 3 -30 1 -58 -3 -63 -4 -4 -20 11 -35 35
-31 50 -156 235 -226 336 -26 38 -48 72 -48 76 0 17 22 -7 56 -61z m-3414
-174 c-2 -197 -4 -220 -18 -206 -12 12 -13 23 -5 59 6 24 11 114 11 200 0 128
3 169 14 169 1 0 0 -100 -2 -222z m879 150 c48 -47 70 -105 68 -181 l-1 -42
-15 55 c-26 96 -46 134 -102 189 -43 42 -48 50 -24 38 17 -9 50 -35 74 -59z
m2369 -16 c-3 -48 -3 -192 0 -319 4 -181 2 -230 -7 -220 -13 13 -21 595 -9
616 17 26 21 6 16 -77z m-4139 26 c51 -17 88 -48 117 -98 24 -40 27 -54 26
-136 -2 -100 -14 -152 -44 -179 -26 -23 -25 -15 2 32 18 32 22 53 21 128 0
119 -23 171 -93 214 -92 56 -226 2 -255 -104 -8 -26 -9 -27 -12 -8 -9 51 59
128 133 148 63 17 65 17 105 3z m5183 -2 c18 -7 52 -37 76 -65 30 -35 51 -51
67 -51 14 0 21 -4 18 -10 -3 -5 -22 -10 -41 -10 -29 0 -38 7 -64 43 -16 23
-35 50 -42 60 -10 15 -27 19 -80 19 -64 1 -77 6 -61 21 11 12 92 7 127 -7z
m-5920 -10 c18 -7 43 -28 57 -45 66 -88 87 -106 106 -95 10 6 19 25 21 43 5
44 22 39 22 -7 0 -47 -14 -62 -57 -62 -35 0 -73 29 -73 55 0 8 -13 30 -30 48
-98 113 -257 51 -289 -112 -20 -102 9 -218 67 -269 22 -19 23 -22 5 -13 -74
37 -123 196 -92 300 18 62 80 143 119 156 48 17 104 18 144 1z m2307 2 c49
-17 86 -47 104 -84 26 -54 17 -59 -17 -8 -40 57 -87 84 -148 84 -54 0 -123
-30 -144 -62 -8 -13 -21 -48 -28 -78 -9 -39 -13 -48 -16 -31 -7 47 8 89 48
127 61 60 129 77 201 52z m1495 -4 c20 -10 45 -34 59 -59 35 -58 58 -77 92
-73 22 2 29 9 31 31 4 33 22 36 22 4 0 -21 -26 -53 -57 -71 -18 -10 -43 4 -59
36 -25 49 -83 106 -120 118 -48 16 -117 4 -153 -25 -34 -30 -60 -80 -72 -144
-8 -46 -8 -46 -4 12 4 64 41 139 77 158 59 32 133 37 184 13z m1960 -60 c0
-39 20 -61 64 -70 14 -3 50 -11 80 -19 30 -8 67 -17 82 -20 39 -8 128 -83 151
-128 47 -90 -19 -227 -128 -268 -70 -26 -214 -26 -272 1 -24 10 -43 24 -43 30
0 6 19 1 42 -11 36 -19 54 -21 152 -17 100 3 115 6 153 31 56 35 73 64 83 134
9 70 -7 121 -52 158 -27 22 -113 53 -198 70 -55 11 -124 51 -139 79 -13 23
-12 28 4 46 10 11 19 20 20 20 0 0 1 -16 1 -36z m354 -4 c0 -16 -4 -30 -8 -30
-5 0 -7 14 -4 30 2 17 6 30 8 30 2 0 4 -13 4 -30z m-3373 -22 c-3 -7 -5 -2 -5
12 0 14 2 19 5 13 2 -7 2 -19 0 -25z m-1425 -195 c-4 -255 -8 -272 -10 -40 -1
114 1 207 6 207 4 0 6 -75 4 -167z m3680 111 l-8 -39 -8 38 c-7 40 0 65 15 50
6 -6 6 -26 1 -49z m-7173 29 c0 -5 -7 -24 -14 -43 -14 -37 -20 -16 -9 28 6 20
25 32 23 15z m3178 -65 c-2 -13 -4 -3 -4 22 0 25 2 35 4 23 2 -13 2 -33 0 -45z
m1443 15 c0 -13 -4 -23 -10 -23 -5 0 -10 17 -10 38 0 27 3 33 10 22 5 -8 10
-25 10 -37z m3206 34 c10 -27 101 -84 159 -101 75 -22 114 -39 70 -31 -89 17
-179 50 -206 78 -36 36 -54 67 -39 67 6 0 13 -6 16 -13z m-2858 -29 c33 -36
131 -78 183 -78 13 0 48 -13 78 -28 43 -21 57 -35 69 -64 12 -33 12 -40 -2
-59 -15 -22 -15 -21 -10 12 5 28 1 41 -19 65 -22 26 -42 34 -145 58 -102 24
-124 33 -155 63 -36 33 -46 53 -29 53 5 0 18 -10 30 -22z m-1387 -60 c24 -35
49 -70 54 -79 15 -25 127 -188 148 -215 14 -18 28 -24 56 -24 20 0 42 5 49 12
17 17 28 2 12 -17 -19 -23 -78 -19 -114 9 -33 24 -43 38 -141 191 -32 50 -66
99 -75 110 -15 19 -43 75 -37 75 2 0 23 -28 48 -62z m673 -99 c15 -43 14 -61
-3 -43 -14 15 -31 100 -30 146 l1 43 9 -52 c5 -28 15 -71 23 -94z m3026 70
c22 -33 40 -63 40 -67 1 -4 21 -32 46 -62 24 -30 52 -68 62 -85 9 -16 31 -44
49 -62 17 -18 26 -33 19 -33 -22 0 -56 32 -77 72 -11 22 -35 56 -52 75 -32 34
-112 162 -124 196 -3 9 -9 17 -14 17 -5 0 -9 5 -9 11 0 19 20 -1 60 -62z
m-4610 41 c0 -11 -4 -20 -9 -20 -5 0 -7 9 -4 20 3 11 7 20 9 20 2 0 4 -9 4
-20z m511 -62 c-9 -20 -10 -18 -10 17 0 31 2 36 9 23 6 -10 7 -25 1 -40z
m1433 -23 c-14 -100 -122 -187 -209 -171 -45 9 -56 27 -12 19 57 -9 111 13
151 61 41 51 56 84 56 129 0 22 3 28 11 20 7 -7 8 -28 3 -58z m132 13 c-10
-98 -29 -135 -106 -204 -59 -53 -122 -74 -227 -74 -138 0 -231 54 -284 164
-10 22 -14 32 -7 21 7 -11 43 -50 79 -86 l66 -66 131 -6 c127 -7 132 -6 178
18 66 35 72 41 108 114 34 68 49 111 54 159 1 6 5 12 8 12 3 0 3 -24 0 -52z
m1007 -95 c14 -26 14 -31 3 -27 -19 7 -34 52 -41 117 l-5 52 13 -55 c7 -30 21
-70 30 -87z m-3361 70 c-6 -61 -21 -92 -22 -45 0 18 -8 40 -20 52 -33 33 -47
25 -83 -46 -30 -59 -93 -119 -134 -128 -25 -6 -103 16 -103 28 0 3 24 2 53 0
73 -7 113 16 153 89 16 32 35 62 42 69 10 10 55 21 108 27 8 1 10 -15 6 -46z
m3755 25 c18 -13 36 -31 39 -41 14 -43 -56 -155 -120 -192 -61 -36 -67 -31
-10 8 64 44 106 104 106 151 0 51 -18 69 -60 62 -34 -5 -34 -5 -17 14 22 25
22 25 62 -2z m2029 -12 c6 -6 14 -29 17 -50 6 -36 3 -43 -37 -83 -36 -36 -50
-43 -82 -43 -45 0 -111 17 -119 30 -3 5 8 4 25 -2 43 -15 126 -5 151 18 46 41
44 79 -5 132 l-21 24 30 -7 c17 -4 35 -13 41 -19z m-3140 -66 c24 -38 54 -75
65 -81 22 -11 111 -8 144 6 18 7 19 6 4 -9 -11 -12 -35 -17 -87 -18 -84 -2
-104 11 -142 93 -24 50 -52 68 -85 55 -8 -3 -15 -2 -15 3 0 14 13 21 42 21 24
0 35 -10 74 -70z m2845 53 c18 -23 38 -58 49 -89 16 -42 -8 -17 -31 31 -23 48
-47 62 -78 46 -29 -16 -34 -43 -17 -92 l15 -44 -20 24 c-27 33 -26 97 4 122
28 23 60 24 78 2z m-6276 -41 c-2 -15 -7 -43 -10 -63 -15 -96 -142 -189 -258
-189 -80 0 -133 17 -175 57 -29 27 -33 35 -22 48 17 21 35 19 78 -9 75 -49
182 -42 256 16 31 25 36 27 27 9 -9 -17 -9 -21 2 -21 32 0 86 100 87 158 0 19
4 31 10 27 5 -3 7 -18 5 -33z m1562 6 c-3 -8 -6 -5 -6 6 -1 11 2 17 5 13 3 -3
4 -12 1 -19z m1779 -106 c46 -65 99 -86 228 -90 128 -5 125 -22 -5 -22 -104 0
-160 18 -211 67 -41 40 -74 114 -62 141 5 13 9 8 14 -19 3 -20 20 -54 36 -77z
m-3409 56 c-3 -8 -6 -5 -6 6 -1 11 2 17 5 13 3 -3 4 -12 1 -19z m-847 -48
c127 -100 132 -106 125 -132 -4 -13 -8 -23 -9 -23 0 -1 -44 -33 -96 -71 -106
-79 -118 -85 -142 -72 -16 8 -18 26 -18 168 0 87 3 165 6 174 12 32 57 17 134
-44z m2450 29 c-7 -11 -14 -18 -17 -15 -3 3 0 12 7 21 18 21 23 19 10 -6z
m-1606 -14 c-4 -8 -8 -15 -10 -15 -2 0 -4 7 -4 15 0 8 4 15 10 15 5 0 7 -7 4
-15z m826 8 c0 -5 -10 -19 -21 -33 l-20 -25 16 33 c15 30 25 41 25 25z m590
-18 c-7 -8 -22 -15 -34 -15 -20 1 -20 2 4 15 33 19 46 19 30 0z m2461 -8 c-10
-9 -11 -8 -5 6 3 10 9 15 12 12 3 -3 0 -11 -7 -18z m3489 13 c16 -5 -16 -8
-87 -9 -69 -1 -113 3 -113 9 0 12 163 12 200 0z m-6059 -19 l44 -9 -45 -1
c-27 0 -53 6 -65 15 -20 16 -20 16 1 10 12 -4 42 -11 65 -15z m3044 -1 c28 -7
28 -8 -12 -9 -23 0 -45 4 -48 9 -7 11 16 11 60 0z m984 -14 c11 -19 11 -28 0
-47 l-14 -24 -3 30 c-2 17 -11 38 -19 48 -15 16 -14 17 4 17 11 0 25 -11 32
-24z m2132 -2 c5 -15 8 -28 7 -28 -2 -1 -16 11 -33 26 -29 27 -29 28 -7 28 15
0 26 -9 33 -26z m-3611 -12 c0 -12 -51 -48 -80 -56 -20 -6 -18 -3 10 16 19 12
41 28 48 35 15 15 22 16 22 5z m-3123 -37 c-32 -28 -57 -34 -36 -9 12 14 44
32 59 33 3 0 -8 -11 -23 -24z m-247 -15 c68 0 160 -13 154 -21 -3 -5 -40 -9
-82 -9 -81 0 -172 25 -180 48 -3 10 5 9 33 -2 21 -9 54 -16 75 -16z m1010 10
c-20 -13 -33 -13 -25 0 3 6 14 10 23 10 15 0 15 -2 2 -10z m5965 -9 c-3 -6
-11 -11 -17 -11 -6 0 -6 6 2 15 14 17 26 13 15 -4z m-5590 -29 c-9 -9 -35 8
-35 24 0 16 2 16 20 -1 11 -10 18 -20 15 -23z m3005 17 c0 -14 -16 -11 -29 5
-10 12 -8 13 8 9 12 -3 21 -9 21 -14z m740 -4 c-7 -8 -20 -15 -29 -15 -12 0
-10 5 9 20 28 21 39 18 20 -5z m-4195 -5 c-11 -5 -31 -9 -45 -9 -23 0 -23 1
-5 9 11 5 31 9 45 9 23 0 23 -1 5 -9z m510 0 c-3 -5 -11 -10 -16 -10 -6 0 -7
5 -4 10 3 6 11 10 16 10 6 0 7 -4 4 -10z m-2476 -52 c-5 -18 -9 -34 -9 -35 0
-2 -168 -133 -313 -244 -42 -32 -103 -51 -144 -43 -20 4 -51 22 -74 44 -40 38
-40 38 -37 106 3 60 5 69 22 69 27 0 31 -21 6 -28 -18 -5 -20 -9 -10 -26 6
-12 17 -21 25 -21 8 0 17 -11 21 -25 16 -63 86 -72 158 -20 27 19 54 35 59 35
12 0 113 78 183 142 35 32 65 52 76 50 10 -2 21 4 24 12 12 30 23 16 13 -16z"/>
<path d="M1465 1680 l-20 -9 20 0 c11 0 29 4 40 9 l20 9 -20 0 c-11 0 -29 -4
-40 -9z"/>
<path d="M1980 1529 c0 -8 11 -26 25 -39 32 -30 32 -14 0 25 -17 20 -25 25
-25 14z"/>
<path d="M2055 1450 c3 -5 10 -10 15 -10 5 0 35 -12 66 -26 31 -14 58 -23 61
-20 12 12 -22 37 -70 51 -59 17 -81 19 -72 5z"/>
<path d="M1050 1390 c-12 -8 -11 -10 7 -10 12 0 25 5 28 10 8 13 -15 13 -35 0z"/>
<path d="M2228 1348 c7 -30 32 -68 43 -68 16 0 10 31 -12 61 -24 35 -39 38
-31 7z"/>
<path d="M974 1345 c-10 -8 -14 -14 -9 -15 15 0 40 18 34 24 -3 3 -14 -1 -25
-9z"/>
<path d="M7670 1384 c0 -8 5 -12 10 -9 6 3 10 10 10 16 0 5 -4 9 -10 9 -5 0
-10 -7 -10 -16z"/>
</g>
</svg>
